<svg xmlns:xlink="http://www.w3.org/1999/xlink" xmlns="http://www.w3.org/2000/svg" class="diagram" viewBox="0 0 458 328" style="max-width:458px" width="458"  height="328" ><defs><marker id="m1a" viewBox="-2 -2 8 8" refX="4" refY="2" markerWidth="7" markerHeight="7" orient="auto-start-reverse"><path d="M0 0v4l4-2-4-2z"></path></marker><marker id="m1c" viewBox="0 0 8 8" refX="4" refY="4" markerWidth="7" markerHeight="7" orient="auto-start-reverse"><circle cx="4" cy="4" r="2.5" stroke="none" fill="currentColor"></circle></marker></defs><rect x="50.286" y="100.571" width="36.571" height="36.571" rx="4.571" stroke="#333333" fill="none" stroke-width="2px"></rect><text x="64.286" y="123.429" fill="#333333" stroke-width="2px">1</text><rect x="150.857" y="192" width="36.571" height="36.571" rx="4.571" stroke="#333333" fill="none" stroke-width="2px"></rect><text x="164.857" y="214.857" fill="#333333" stroke-width="2px">2</text><rect x="251.429" y="283.429" width="36.571" height="36.571" rx="4.571" stroke="#333333" fill="none" stroke-width="2px"></rect><text x="265.429" y="306.286" fill="#333333" stroke-width="2px">3</text><rect x="370.286" y="283.429" width="36.571" height="36.571" rx="4.571" stroke="#333333" fill="none" stroke-width="2px"></rect><text x="384.286" y="306.286" fill="#333333" stroke-width="2px">4</text><path marker-end="url(#m1a)" d="M0 27.429h45.714" stroke="#333333" fill="none" stroke-width="2px"></path><path marker-end="url(#m1c)" d="M68.571 54.857V27.429" stroke="#333333" fill="none" stroke-width="2px"></path><path marker-end="url(#m1c)" d="M118.857 27.429h-13.714" stroke="#333333" fill="none" stroke-width="2px"></path><path marker-end="url(#m1a)" d="M118.857 27.429h45.714" stroke="#333333" fill="none" stroke-width="2px"></path><path marker-end="url(#m1c)" d="M187.429 54.857V27.429" stroke="#333333" fill="none" stroke-width="2px"></path><path marker-end="url(#m1a)" d="M68.571 54.857v36.572" stroke="#333333" fill="none" stroke-width="2px"></path><path marker-end="url(#m1a)" d="M187.429 54.857v36.572" stroke="#333333" fill="none" stroke-width="2px"></path><path marker-end="url(#m1c)" d="M169.143 146.286v-27.429" stroke="#333333" fill="none" stroke-width="2px"></path><path marker-end="url(#m1c)" d="M219.429 118.857h-13.715" stroke="#333333" fill="none" stroke-width="2px"></path><path marker-end="url(#m1a)" d="M219.429 118.857h45.714" stroke="#333333" fill="none" stroke-width="2px"></path><path marker-end="url(#m1c)" d="M288 146.286v-27.429" stroke="#333333" fill="none" stroke-width="2px"></path><path marker-end="url(#m1a)" d="M169.143 146.286v36.571" stroke="#333333" fill="none" stroke-width="2px"></path><path marker-end="url(#m1a)" d="M288 146.286v36.571" stroke="#333333" fill="none" stroke-width="2px"></path><path marker-end="url(#m1c)" d="M269.714 237.714v-27.428" stroke="#333333" fill="none" stroke-width="2px"></path><path marker-end="url(#m1c)" d="M320 210.286h-13.714" stroke="#333333" fill="none" stroke-width="2px"></path><path marker-end="url(#m1a)" d="M320 210.286h45.714" stroke="#333333" fill="none" stroke-width="2px"></path><path marker-end="url(#m1c)" d="M388.571 237.714v-27.428" stroke="#333333" fill="none" stroke-width="2px"></path><path marker-end="url(#m1a)" d="M269.714 237.714v36.572" stroke="#333333" fill="none" stroke-width="2px"></path><path marker-end="url(#m1a)" d="M388.571 237.714v36.572" stroke="#333333" fill="none" stroke-width="2px"></path><path d="M54.857 9.143a4.571 4.571 0 0 0-4.571 4.571m0 0v27.429m4.571-32h64m-32 0v36.571m32-36.571a4.571 4.571 0 0 1 4.572 4.571m0 0v27.429m-73.143 0a4.571 4.571 0 0 0 4.571 4.571m0 0h64m4.572-4.571a4.571 4.571 0 0 1-4.572 4.571m54.857-36.571a4.571 4.571 0 0 0-4.571 4.571m0 0v27.429m4.571-32h64m-32 0v36.571m27.429-36.571-13.714 27.428m18.285-27.428a4.571 4.571 0 0 1 4.572 4.571m0 0v27.429m-73.143 0a4.571 4.571 0 0 0 4.571 4.571m0 0h64m-18.285-9.143-4.572 9.143m27.429-4.571a4.571 4.571 0 0 1-4.572 4.571m-82.285 54.857a4.571 4.571 0 0 0-4.572 4.572m0 0v27.428m4.572-32h64m-32 0v36.572m32-36.572a4.571 4.571 0 0 1 4.571 4.572m0 0v27.428m-73.143 0a4.571 4.571 0 0 0 4.572 4.572m0 0h64m4.571-4.572a4.571 4.571 0 0 1-4.571 4.572m54.857-36.572a4.571 4.571 0 0 0-4.572 4.572m0 0v27.428m4.572-32h64m-32 0v36.572m27.428-36.572L320 128m18.286-27.429a4.571 4.571 0 0 1 4.571 4.572m0 0v27.428m-73.143 0a4.571 4.571 0 0 0 4.572 4.572m0 0h64M320 128l-4.571 9.143m27.428-4.572a4.571 4.571 0 0 1-4.571 4.572M256 192a4.571 4.571 0 0 0-4.571 4.571m0 0V224M256 192h64m-32 0v36.571M320 192a4.571 4.571 0 0 1 4.571 4.571m0 0V224m-73.142 0a4.571 4.571 0 0 0 4.571 4.571m0 0h64m4.571-4.571a4.571 4.571 0 0 1-4.571 4.571M374.857 192a4.571 4.571 0 0 0-4.571 4.571m0 0V224m4.571-32h64m-32 0v36.571M434.286 192l-13.715 27.429M438.857 192a4.571 4.571 0 0 1 4.572 4.571m0 0V224m-73.143 0a4.571 4.571 0 0 0 4.571 4.571m0 0h64m-18.286-9.142L416 228.571M443.429 224a4.571 4.571 0 0 1-4.572 4.571" stroke="#333333" fill="none" stroke-width="2px"></path></svg>