<svg xmlns:xlink="http://www.w3.org/1999/xlink" xmlns="http://www.w3.org/2000/svg" class="diagram" viewBox="0 0 494 145" style="max-width:494px" width="494"  height="145" ><defs><marker id="m1a" viewBox="-2 -2 8 8" refX="4" refY="2" markerWidth="7" markerHeight="7" orient="auto-start-reverse"><path d="M0 0v4l4-2-4-2z"></path></marker><marker id="m1c" viewBox="0 0 8 8" refX="4" refY="4" markerWidth="7" markerHeight="7" orient="auto-start-reverse"><circle cx="4" cy="4" r="2.5" stroke="none" fill="currentColor"></circle></marker></defs><rect x="50.286" y="100.571" width="36.571" height="36.571" rx="4.571" stroke="#333333" fill="none" stroke-width="2px"></rect><text x="64.286" y="123.429" fill="#333333" stroke-width="2px">1</text><rect x="169.143" y="100.571" width="36.571" height="36.571" rx="4.571" stroke="#333333" fill="none" stroke-width="2px"></rect><text x="183.143" y="123.429" fill="#333333" stroke-width="2px">2</text><rect x="288" y="100.571" width="36.571" height="36.571" rx="4.571" stroke="#333333" fill="none" stroke-width="2px"></rect><text x="302" y="123.429" fill="#333333" stroke-width="2px">3</text><rect x="406.857" y="100.571" width="36.571" height="36.571" rx="4.571" stroke="#333333" fill="none" stroke-width="2px"></rect><text x="420.857" y="123.429" fill="#333333" stroke-width="2px">4</text><path marker-end="url(#m1a)" d="M0 27.429h45.714" stroke="#333333" fill="none" stroke-width="2px"></path><path marker-end="url(#m1c)" d="M68.571 54.857V27.429" stroke="#333333" fill="none" stroke-width="2px"></path><path marker-end="url(#m1c)" d="M118.857 27.429h-13.714" stroke="#333333" fill="none" stroke-width="2px"></path><path marker-end="url(#m1a)" d="M118.857 27.429h45.714" stroke="#333333" fill="none" stroke-width="2px"></path><path marker-end="url(#m1c)" d="M187.429 54.857V27.429" stroke="#333333" fill="none" stroke-width="2px"></path><path marker-end="url(#m1c)" d="M237.714 27.429H224" stroke="#333333" fill="none" stroke-width="2px"></path><path marker-end="url(#m1a)" d="M237.714 27.429h45.715" stroke="#333333" fill="none" stroke-width="2px"></path><path marker-end="url(#m1c)" d="M306.286 54.857V27.429" stroke="#333333" fill="none" stroke-width="2px"></path><path marker-end="url(#m1c)" d="M356.571 27.429h-13.714" stroke="#333333" fill="none" stroke-width="2px"></path><path marker-end="url(#m1a)" d="M356.571 27.429h45.715" stroke="#333333" fill="none" stroke-width="2px"></path><path marker-end="url(#m1c)" d="M425.143 54.857V27.429" stroke="#333333" fill="none" stroke-width="2px"></path><path marker-end="url(#m1a)" d="M68.571 54.857v36.572" stroke="#333333" fill="none" stroke-width="2px"></path><path marker-end="url(#m1a)" d="M187.429 54.857v36.572" stroke="#333333" fill="none" stroke-width="2px"></path><path marker-end="url(#m1a)" d="M306.286 54.857v36.572" stroke="#333333" fill="none" stroke-width="2px"></path><path marker-end="url(#m1a)" d="M425.143 54.857v36.572" stroke="#333333" fill="none" stroke-width="2px"></path><path d="M54.857 9.143a4.571 4.571 0 0 0-4.571 4.571m0 0v27.429m4.571-32h64m-32 0v36.571m32-36.571a4.571 4.571 0 0 1 4.572 4.571m0 0v27.429m-73.143 0a4.571 4.571 0 0 0 4.571 4.571m0 0h64m4.572-4.571a4.571 4.571 0 0 1-4.572 4.571m54.857-36.571a4.571 4.571 0 0 0-4.571 4.571m0 0v27.429m4.571-32h64m-32 0v36.571m32-36.571a4.571 4.571 0 0 1 4.572 4.571m0 0v27.429m-73.143 0a4.571 4.571 0 0 0 4.571 4.571m0 0h64m4.572-4.571a4.571 4.571 0 0 1-4.572 4.571m54.857-36.571A4.571 4.571 0 0 0 288 13.714m0 0v27.429m4.571-32h64m-32 0v36.571m32-36.571a4.571 4.571 0 0 1 4.572 4.571m0 0v27.429m-73.143 0a4.571 4.571 0 0 0 4.571 4.571m0 0h64m4.572-4.571a4.571 4.571 0 0 1-4.572 4.571m54.858-36.571a4.571 4.571 0 0 0-4.572 4.571m0 0v27.429m4.572-32h64m-32 0v36.571m27.428-36.571-13.714 27.428m18.286-27.428A4.571 4.571 0 0 1 480 13.714m0 0v27.429m-73.143 0a4.571 4.571 0 0 0 4.572 4.571m0 0h64m-18.286-9.143-4.572 9.143M480 41.143a4.571 4.571 0 0 1-4.571 4.571" stroke="#333333" fill="none" stroke-width="2px"></path></svg>