<svg xmlns:xlink="http://www.w3.org/1999/xlink" xmlns="http://www.w3.org/2000/svg" class="diagram" viewBox="0 0 330 328" style="max-width:330px" width="330"  height="328" ><text x="36.857" y="13.714" fill="#333333" stroke-width="2px">1</text><text x="73.429" y="13.714" fill="#333333" stroke-width="2px">2</text><text x="110" y="13.714" fill="#333333" stroke-width="2px">3</text><text x="146.571" y="13.714" fill="#333333" stroke-width="2px">4</text><text x="183.143" y="13.714" fill="#333333" stroke-width="2px">5</text><text x="219.714" y="13.714" fill="#333333" stroke-width="2px">6</text><text x="256.286" y="13.714" fill="#333333" stroke-width="2px">7</text><text x="292.857" y="13.714" fill="#333333" stroke-width="2px">8</text><text x="36.857" y="50.286" fill="#333333" stroke-width="2px">Q</text><text x="256.286" y="86.857" fill="#333333" stroke-width="2px">Q</text><text x="183.143" y="123.429" fill="#333333" stroke-width="2px">Q</text><text x="292.857" y="160" fill="#333333" stroke-width="2px">Q</text><text x="73.429" y="196.571" fill="#333333" stroke-width="2px">Q</text><text x="146.571" y="233.143" fill="#333333" stroke-width="2px">Q</text><text x="219.714" y="269.714" fill="#333333" stroke-width="2px">Q</text><text x="110" y="306.286" fill="#333333" stroke-width="2px">Q</text><text x=".286" y="50.286" fill="#333333" stroke-width="2px">1</text><text x=".286" y="86.857" fill="#333333" stroke-width="2px">2</text><text x=".286" y="123.429" fill="#333333" stroke-width="2px">3</text><text x=".286" y="160" fill="#333333" stroke-width="2px">4</text><text x=".286" y="196.571" fill="#333333" stroke-width="2px">5</text><text x=".286" y="233.143" fill="#333333" stroke-width="2px">6</text><text x=".286" y="269.714" fill="#333333" stroke-width="2px">7</text><text x=".286" y="306.286" fill="#333333" stroke-width="2px">8</text><path d="M22.857 27.429h292.572m-292.572 0V320M59.429 27.429V320M96 27.429V320m36.571-292.571V320m36.572-292.571V320m36.571-292.571V320m36.572-292.571V320m36.571-292.571V320m36.572-292.571V320M22.857 64h292.572M22.857 100.571h292.572M22.857 137.143h292.572M22.857 173.714h292.572M22.857 210.286h292.572M22.857 246.857h292.572M22.857 283.429h292.572M22.857 320h292.572" stroke="#333333" fill="none" stroke-width="2px"></path></svg>