<svg xmlns:xlink="http://www.w3.org/1999/xlink" xmlns="http://www.w3.org/2000/svg" class="diagram" viewBox="0 0 256 218" style="max-width:256px" width="256"  height="218" ><text x="64.286" y="68.571" fill="#333333" stroke-width="2px">16</text><text x="55.143" y="86.857" fill="#333333" stroke-width="2px">8</text><text x="46" y="105.143" fill="#333333" stroke-width="2px">4</text><text x="9.429" y="123.429" fill="#333333" stroke-width="2px">1</text><text x="36.857" y="123.429" fill="#333333" stroke-width="2px">2</text><text x="219.714" y="68.571" fill="#333333" stroke-width="2px">512</text><text x="210.571" y="86.857" fill="#333333" stroke-width="2px">256</text><text x="201.429" y="105.143" fill="#333333" stroke-width="2px">128</text><text x="192.286" y="123.429" fill="#333333" stroke-width="2px">64</text><text x="183.143" y="141.714" fill="#333333" stroke-width="2px">32</text><text x="174" y="160" fill="#333333" stroke-width="2px">16</text><text x="164.857" y="178.286" fill="#333333" stroke-width="2px">8</text><text x="155.714" y="196.571" fill="#333333" stroke-width="2px">4</text><text x="119.143" y="214.857" fill="#333333" stroke-width="2px">1</text><text x="146.571" y="214.857" fill="#333333" stroke-width="2px">2</text><text x="36.857" y="13.714" fill="#333333" stroke-width="2px">n=5</text><text x="192.286" y="13.714" fill="#333333" stroke-width="2px">n=10</text><path d="M54.857 36.571 27.429 91.429m27.428-54.858L64 54.857m-18.286 0 9.143 18.286m-18.286 0 9.143 18.286m-18.285 0-9.143 18.285m9.143-18.285 9.142 18.285m173.715-73.143-54.857 109.715m54.857-109.715 9.143 18.286m-18.286 0 9.143 18.286m-18.286 0 9.143 18.286m-18.286 0L192 109.714m-18.286 0L182.857 128m-18.286 0 9.143 18.286m-18.285 0L128 201.143m27.429-54.857 9.142 18.285m-18.285 0 9.143 18.286m-18.286 0 9.143 18.286" stroke="#333333" fill="none" stroke-width="2px"></path></svg>